# xmcd CD database file
#
# Track frame offsets:
#	150
#	18479
#	35136
#	55538
#	69009
#	84864
#	100073
#	116200
#	132253
#	147179
#	159212
#	171404
#	188745
#	211021
#	227673
#
# Disc length: 3277 seconds
#
# Revision: 0
# Processed by: cddbd v1.5.2PL0 Copyright (c) Steve Scherf et al.
# Submitted via: CdAid (MTCDDB.DLL V2003.07.15)
#
DISCID=bc0ccb0f
DTITLE=Varioius - Mixed country Volume 4 Disk 1
DYEAR=2006
DGENRE=Country
TTITLE0=Andy Griggs - She Thinks She Needs Me
TTITLE1=Big and Rich - Save A Horse (Ride A Cowboy)
TTITLE2=Brad Paisley -Allison Krauss - Whiskey Lullaby
TTITLE3=Brooks and Dunn - That's What She Gets For Loving Me
TTITLE4=Buddy Jewell - Sweet Southern Comfort
TTITLE5=Gretchen Wilson - Here For The Party
TTITLE6=Gretchen Wilson - Redneck Woman
TTITLE7=Jimmy Buffett-Martina McBride - Trip Around The Sun
TTITLE8=Jo Dee Messina - My Give A Damn's Busted
TTITLE9=John Michael Montgomery - 4 Wheel Drive
TTITLE10=Josh Gracin - Nothing To Lose
TTITLE11=Josh Gracin - I Want To Live
TTITLE12=Keith Urban - You'll Think Of Me
TTITLE13=Kenny Chesney-Uncle Kracker - When the Sun Goes Down
TTITLE14=Martina McBride - How Far
EXTD=ID3G:   2 YEAR: 2006
EXTT0=
EXTT1=
EXTT2=
EXTT3=
EXTT4=
EXTT5=
EXTT6=
EXTT7=
EXTT8=
EXTT9=
EXTT10=
EXTT11=
EXTT12=
EXTT13=
EXTT14=
PLAYORDER=
